<?xml version="1.0" standalone="no"?>
<svg version="1.0" xmlns="http://www.w3.org/2000/svg"
 width="100%" height="100%" viewBox="0 0 614.000000 117.000000"
 preserveAspectRatio="xMidYMid meet">

<g transform="translate(0.000000,117.000000) scale(0.100000,-0.100000)"
fill="#f20000" stroke="none">
<path d="M545 1130 c-3 -5 -22 -10 -41 -10 -77 0 -210 -64 -293 -140 -56 -52
-123 -161 -136 -222 -4 -18 -12 -38 -17 -45 -5 -7 -10 -67 -10 -133 0 -66 5
-126 10 -133 5 -7 13 -27 17 -46 8 -38 52 -117 97 -174 55 -69 204 -167 255
-167 10 0 25 -6 31 -13 10 -9 527 -12 2515 -12 2413 0 2504 1 2560 19 32 10
86 33 121 51 l62 34 50 -34 c27 -19 54 -34 59 -35 6 0 24 -7 40 -16 39 -20
230 -32 201 -12 -43 30 -85 76 -107 118 -21 39 -24 63 -30 239 -9 228 -17 321
-28 336 -5 5 -11 25 -15 43 -3 19 -19 54 -36 78 -16 25 -30 48 -30 51 0 18
-136 132 -186 157 -83 41 -93 45 -149 58 -65 16 -4930 24 -4940 8z"/>
</g>
</svg>
